<svg width="34" height="29" viewBox="0 0 34 29" fill="none" xmlns="http://www.w3.org/2000/svg">
<path d="M33.463 4.01694L0.785405 0.219812C0.652641 0.204533 0.518991 0.238213 0.407579 0.312435C0.152023 0.484016 0.0803395 0.831854 0.253123 1.09071L7.33574 11.6895C7.44241 11.849 7.62296 11.9442 7.81518 11.9378L13.3042 11.8368L9.03774 15.2864C8.88759 15.4084 8.80925 15.5941 8.83334 15.7836L10.2199 28.4743C10.2347 28.6074 10.2948 28.7314 10.3906 28.82C10.6145 29.0341 10.9701 29.0243 11.1875 28.7993L33.8081 4.96507C33.8925 4.87825 33.9438 4.76229 33.9606 4.64395C33.9932 4.33276 33.7721 4.05409 33.463 4.01694ZM12.2725 23.9785L11.462 16.5815L19.9962 9.6854C20.0626 9.63132 20.1037 9.54901 20.1013 9.4601C20.097 9.30452 19.9702 9.18231 19.8135 9.18326L8.84437 9.38953L4.72672 3.22616L29.2598 6.07805L12.2725 23.9785Z" fill="#1A1A1A"/>
</svg>
